<svg width="27" height="26" viewBox="0 0 27 26" fill="none" xmlns="http://www.w3.org/2000/svg">
<g clip-path="url(#clip0_60_171)">
<rect x="0.670654" y="0.0235596" width="25.9765" height="25.9765" rx="12.9882" fill="white"/>
<path d="M24.5486 2.12253C24.2315 1.80503 23.8161 1.64648 23.4007 1.64648C22.9851 1.64648 22.5698 1.80503 22.2528 2.12253L2.76925 21.6057C2.13486 22.2399 2.13486 23.2673 2.76925 23.9015C3.08635 24.2186 3.50177 24.3771 3.91714 24.3771C4.33271 24.3771 4.74793 24.2186 5.06502 23.9015L24.5486 4.41831C25.1829 3.78411 25.1829 2.75632 24.5486 2.12253Z" fill="#BDADAD"/>
<path d="M4.38952 17.6896L8.81328 13.2657C8.81019 13.1801 8.78801 13.0992 8.78801 13.012C8.78801 10.3294 10.9712 8.14423 13.654 8.14103C13.6555 8.13946 13.6588 8.13946 13.6621 8.14103C13.6621 8.14103 13.6621 8.14103 13.6635 8.14103C13.7492 8.14103 13.8284 8.16163 13.9123 8.1664L16.8267 5.25226C15.8484 5.04298 14.8193 4.89392 13.6667 4.89392C13.6667 4.89392 13.6667 4.89392 13.6651 4.89392C13.6635 4.89392 13.6621 4.89392 13.6588 4.89392C13.6588 4.89392 13.6555 4.89392 13.6524 4.89392C13.6508 4.89392 13.6508 4.89392 13.6508 4.89392C7.35139 4.89717 3.85046 8.3218 1.00588 12.0223C0.55875 12.6061 0.55875 13.4179 1.00588 14.0014C2.01602 15.3157 3.11794 16.5861 4.38952 17.6896Z" fill="#BDADAD"/>
<path d="M26.3118 12.0223C25.3016 10.7084 24.1997 9.43797 22.9281 8.33447L18.5044 12.7583C18.5075 12.844 18.5297 12.9248 18.5297 13.012C18.5297 15.6946 16.3465 17.8795 13.6637 17.883C13.6622 17.883 13.6622 17.883 13.6622 17.883C13.6622 17.883 13.6605 17.883 13.6589 17.883C13.6573 17.883 13.6556 17.883 13.6556 17.883C13.6556 17.883 13.6556 17.883 13.6542 17.883C13.5685 17.883 13.4893 17.862 13.4052 17.8576L10.491 20.7718C11.4693 20.9811 12.4984 21.1301 13.651 21.1301C13.651 21.1301 13.651 21.1301 13.6526 21.1301H13.6542C13.6556 21.1301 13.6589 21.1301 13.6589 21.1301C13.6589 21.1301 13.6605 21.1301 13.6622 21.1301C13.6622 21.1301 13.6622 21.1301 13.6637 21.1301H13.6653C13.6668 21.1301 13.6668 21.1301 13.6668 21.1301C13.6716 21.1301 13.678 21.1301 13.6843 21.1301C13.6906 21.1286 13.697 21.1286 13.7065 21.1301C19.9791 21.1127 23.472 17.6944 26.3119 14.0014C26.7589 13.418 26.7589 12.6062 26.3118 12.0223Z" fill="#BDADAD"/>
</g>
<defs>
<clipPath id="clip0_60_171">
<rect x="0.670654" y="0.0235596" width="25.9765" height="25.9765" rx="12.9882" fill="white"/>
</clipPath>
</defs>
</svg>
