<svg width="100" height="100" viewBox="0 0 100 100" fill="none" xmlns="http://www.w3.org/2000/svg">
<rect width="100" height="100" rx="13" fill="#F15A2B"/>
<path d="M69.8264 66.5179C68.8686 66.537 67.9278 66.2687 67.1303 65.7489C66.5368 65.3692 65.8431 65.1669 65.134 65.1669C64.425 65.1669 63.7313 65.3692 63.1377 65.7489C62.3321 66.2511 61.397 66.5179 60.442 66.5179C59.487 66.5179 58.5519 66.2511 57.7463 65.7489C57.1528 65.3688 56.4589 65.1663 55.7497 65.1663C55.0404 65.1663 54.3466 65.3688 53.753 65.7489C52.9474 66.2511 52.0123 66.5179 51.0573 66.5179C50.1023 66.5179 49.1672 66.2511 48.3616 65.7489C47.7685 65.369 47.0751 65.1667 46.3663 65.1667C45.6576 65.1667 44.9642 65.369 44.3711 65.7489C43.6407 66.2242 42.7883 66.4883 41.9117 66.5111L41.8634 65.1597C42.5109 65.1447 43.1397 64.9441 43.672 64.5827C44.4774 64.0807 45.4123 63.814 46.367 63.814C47.3218 63.814 48.2567 64.0807 49.062 64.5827C49.6555 64.9626 50.3493 65.165 51.0583 65.165C51.7674 65.165 52.4612 64.9626 53.0547 64.5827C53.8604 64.0802 54.7958 63.8132 55.751 63.8132C56.7063 63.8132 57.6417 64.0802 58.4474 64.5827C59.0409 64.9626 59.7347 65.165 60.4437 65.165C61.1528 65.165 61.8465 64.9626 62.4401 64.5827C63.2457 64.0807 64.1808 63.814 65.1357 63.814C66.0907 63.814 67.0258 64.0807 67.8314 64.5827C68.4264 64.9635 69.1218 65.1664 69.8326 65.1664C70.5434 65.1664 71.2388 64.9635 71.8337 64.5827C72.6303 64.0645 73.5694 63.7967 74.5256 63.8151V65.1665C73.8137 65.1474 73.1141 65.3512 72.5286 65.7483C71.7292 66.2688 70.7862 66.5373 69.8264 66.5179Z" fill="white"/>
<path d="M32.2945 66.5176C31.3369 66.537 30.3963 66.2686 29.5992 65.7486C29.0138 65.3513 28.3142 65.1472 27.6022 65.1662V63.8149C28.56 63.7954 29.5009 64.0637 30.2982 64.5838C30.8833 64.9813 31.5827 65.1853 32.2945 65.1662C33.0067 65.1854 33.7064 64.9811 34.2915 64.5831C35.0872 64.0634 36.0265 63.7952 36.9827 63.8149C37.9158 63.7943 38.8334 64.0504 39.6153 64.5493L38.919 65.7155C38.3479 65.3392 37.6709 65.1471 36.9827 65.1662C36.2735 65.1475 35.5768 65.3511 34.994 65.7473C34.196 66.2687 33.2537 66.5376 32.2945 66.5176Z" fill="white"/>
<path d="M69.8285 61.7872C68.8701 61.8064 67.9286 61.5381 67.1304 61.0183C66.5363 60.6382 65.842 60.4357 65.1324 60.4357C64.4227 60.4357 63.7284 60.6382 63.1343 61.0183C62.3288 61.5204 61.3938 61.787 60.439 61.787C59.4841 61.787 58.5491 61.5204 57.7436 61.0183C57.1504 60.6384 56.4569 60.4361 55.748 60.4361C55.0391 60.4361 54.3456 60.6384 53.7524 61.0183C52.9469 61.5205 52.0119 61.7873 51.057 61.7873C50.1022 61.7873 49.1671 61.5205 48.3617 61.0183C47.7684 60.6384 47.0749 60.4361 46.3661 60.4361C45.6572 60.4361 44.9637 60.6384 44.3704 61.0183C43.5734 61.5383 42.6327 61.8067 41.6751 61.7872C40.7175 61.8067 39.7768 61.5383 38.9797 61.0183C38.3949 60.6209 37.6957 60.4169 36.9841 60.4359C36.2727 60.417 35.5738 60.621 34.9892 61.0183C34.1934 61.5377 33.2542 61.8061 32.298 61.7872C31.3402 61.8067 30.3993 61.5384 29.6019 61.0183C29.0159 60.6201 28.3152 60.416 27.6022 60.4359V59.0845C28.5598 59.0651 29.5004 59.3335 30.2975 59.8534C30.8829 60.2508 31.5825 60.4549 32.2945 60.4359C33.0059 60.4548 33.7048 60.2507 34.2895 59.8534C35.0853 59.334 36.0244 59.0657 36.9807 59.0845C37.939 59.0646 38.8805 59.333 39.6781 59.8534C40.2631 60.2509 40.9626 60.455 41.6744 60.4359C42.3862 60.455 43.0857 60.2509 43.6707 59.8534C44.4761 59.3512 45.4112 59.0844 46.3661 59.0844C47.3209 59.0844 48.256 59.3512 49.0614 59.8534C49.6548 60.2334 50.3484 60.4357 51.0574 60.4357C51.7664 60.4357 52.46 60.2334 53.0534 59.8534C53.8588 59.3512 54.7938 59.0844 55.7487 59.0844C56.7036 59.0844 57.6386 59.3512 58.444 59.8534C59.0374 60.2334 59.731 60.4357 60.44 60.4357C61.149 60.4357 61.8426 60.2334 62.436 59.8534C63.2422 59.3514 64.1779 59.0847 65.1334 59.0847C66.0889 59.0847 67.0246 59.3514 67.8308 59.8534C68.4253 60.2333 69.1197 60.4355 69.8296 60.4355C70.5394 60.4355 71.2338 60.2333 71.8283 59.8534C72.6263 59.3338 73.5675 59.0655 74.5257 59.0845V60.4359C73.8123 60.4161 73.1111 60.6202 72.5245 61.0183C71.7269 61.5377 70.7862 61.806 69.8285 61.7872Z" fill="white"/>
<path d="M69.8265 57.0583C68.8687 57.0775 67.9279 56.8092 67.1304 56.2894C66.5451 55.8921 65.8455 55.688 65.1334 55.707C64.6109 55.6894 64.092 55.7985 63.6229 56.0246L63.0143 54.8083C63.6731 54.4922 64.4 54.3362 65.1334 54.3536C66.0924 54.3345 67.0342 54.6035 67.8322 55.1246C68.4272 55.5054 69.1226 55.7082 69.8334 55.7082C70.5442 55.7082 71.2396 55.5054 71.8345 55.1246C72.6307 54.6059 73.5696 54.3377 74.5257 54.3556V55.707C73.8138 55.6879 73.1142 55.8917 72.5287 56.2887C71.7293 56.8093 70.7863 57.0778 69.8265 57.0583Z" fill="white"/>
<path d="M60.4348 57.058C59.4786 57.0776 58.5393 56.8095 57.7436 56.2897C57.1501 55.9096 56.4562 55.7071 55.747 55.7071C55.0377 55.7071 54.3439 55.9096 53.7503 56.2897C52.9447 56.7919 52.0096 57.0586 51.0546 57.0586C50.0996 57.0586 49.1645 56.7919 48.3589 56.2897C47.7654 55.9098 47.0717 55.7075 46.3626 55.7075C45.6535 55.7075 44.9598 55.9098 44.3663 56.2897C43.5693 56.8088 42.6293 57.0769 41.6723 57.058C40.7147 57.0773 39.7741 56.809 38.977 56.289C38.3916 55.8917 37.692 55.6876 36.98 55.7066C36.2708 55.6879 35.574 55.8915 34.9912 56.2877C34.194 56.8086 33.2527 57.0774 32.2945 57.058C31.3369 57.0773 30.3963 56.809 29.5992 56.289C29.0138 55.8917 28.3142 55.6876 27.6022 55.7066V54.3553C28.56 54.3358 29.5009 54.6041 30.2982 55.1242C30.8833 55.5217 31.5827 55.7257 32.2945 55.7066C33.0067 55.7258 33.7064 55.5214 34.2915 55.1235C35.0872 54.6037 36.0265 54.3356 36.9827 54.3553C37.9403 54.3359 38.881 54.6043 39.6781 55.1242C40.2631 55.5217 40.9626 55.7257 41.6744 55.7066C42.3864 55.7256 43.086 55.5215 43.6714 55.1242C44.477 54.622 45.4121 54.3552 46.3671 54.3552C47.3221 54.3552 48.2572 54.622 49.0628 55.1242C49.6563 55.5041 50.35 55.7064 51.0591 55.7064C51.7682 55.7064 52.4619 55.5041 53.0554 55.1242C53.8611 54.6216 54.7965 54.3547 55.7518 54.3547C56.7071 54.3547 57.6425 54.6216 58.4482 55.1242C59.0561 55.5246 59.777 55.728 60.5094 55.7059C60.5626 55.7066 60.6159 55.7039 60.6688 55.6978L60.8523 57.037C60.7138 57.0528 60.5743 57.0598 60.4348 57.058Z" fill="white"/>
<path d="M69.8285 52.3278C68.8701 52.3469 67.9286 52.0786 67.1304 51.5588C66.5363 51.1787 65.842 50.9763 65.1324 50.9763C64.4227 50.9763 63.7284 51.1787 63.1343 51.5588C62.3288 52.0609 61.3938 52.3276 60.439 52.3276C59.4841 52.3276 58.5491 52.0609 57.7436 51.5588C57.1504 51.179 56.4569 50.9766 55.748 50.9766C55.0391 50.9766 54.3456 51.179 53.7524 51.5588C52.9469 52.061 52.0119 52.3278 51.057 52.3278C50.1022 52.3278 49.1671 52.061 48.3617 51.5588C47.7684 51.179 47.0749 50.9766 46.3661 50.9766C45.6572 50.9766 44.9637 51.179 44.3704 51.5588C43.5734 52.0789 42.6327 52.3472 41.6751 52.3278C40.7175 52.3472 39.7768 52.0789 38.9797 51.5588C38.3949 51.1615 37.6957 50.9574 36.9841 50.9764C36.2727 50.9575 35.5738 51.1615 34.9892 51.5588C34.1934 52.0783 33.2542 52.3466 32.298 52.3278C31.3402 52.3472 30.3993 52.0789 29.6019 51.5588C29.0159 51.1607 28.3152 50.9566 27.6022 50.9764V49.6251C28.5598 49.6057 29.5004 49.874 30.2975 50.394C30.8829 50.7913 31.5825 50.9954 32.2945 50.9764C33.0059 50.9953 33.7048 50.7913 34.2895 50.394C35.0853 49.8745 36.0244 49.6062 36.9807 49.6251C37.939 49.6051 38.8805 49.8735 39.6781 50.394C40.2631 50.7915 40.9626 50.9955 41.6744 50.9764C42.3862 50.9955 43.0857 50.7915 43.6707 50.394C44.4761 49.8917 45.4112 49.6249 46.3661 49.6249C47.3209 49.6249 48.256 49.8917 49.0614 50.394C49.6548 50.7739 50.3484 50.9763 51.0574 50.9763C51.7664 50.9763 52.46 50.7739 53.0534 50.394C53.8588 49.8917 54.7938 49.6249 55.7487 49.6249C56.7036 49.6249 57.6386 49.8917 58.444 50.394C59.0374 50.7739 59.731 50.9763 60.44 50.9763C61.149 50.9763 61.8426 50.7739 62.436 50.394C63.2422 49.8919 64.1779 49.6252 65.1334 49.6252C66.0889 49.6252 67.0246 49.8919 67.8308 50.394C68.4253 50.7738 69.1197 50.9761 69.8296 50.9761C70.5394 50.9761 71.2338 50.7738 71.8283 50.394C72.6263 49.8743 73.5675 49.606 74.5257 49.6251V50.9764C73.8123 50.9567 73.1111 51.1607 72.5245 51.5588C71.7269 52.0782 70.7862 52.3465 69.8285 52.3278Z" fill="white"/>
<path d="M59.9954 51.7548L58.6932 51.3075C59.0286 50.3641 59.1656 49.364 59.096 48.3673C59.0264 47.3707 58.7516 46.3982 58.2882 45.5082L53.5482 36.4197C53.5014 36.3299 53.4757 36.2311 53.473 36.1303C53.4703 36.0296 53.4906 35.9295 53.5325 35.8375C53.5743 35.7454 53.6367 35.6637 53.715 35.5983C53.7933 35.5329 53.8856 35.4855 53.985 35.4596L63.4311 32.9933C63.739 32.9145 64.0025 32.7199 64.1645 32.4517C64.3265 32.1836 64.3738 31.8636 64.2962 31.5615C64.2185 31.2594 64.0221 30.9995 63.7497 30.8385C63.4774 30.6774 63.1511 30.6282 62.8418 30.7015L51.4091 33.3771C51.1647 33.4337 50.9368 33.5446 50.7432 33.7012C50.5496 33.8578 50.3954 34.056 50.2926 34.2803C50.1898 34.5047 50.1411 34.7492 50.1503 34.9949C50.1595 35.2407 50.2264 35.481 50.3457 35.6974L53.7407 41.8731C53.8269 42.03 53.8462 42.2139 53.7945 42.3848C53.7428 42.5556 53.6243 42.6995 53.4647 42.7852L49.0829 45.1501L48.417 43.9663L52.1999 41.9244L49.1319 36.3379C48.9124 35.9391 48.7896 35.4962 48.7728 35.0435C48.7561 34.5908 48.8459 34.1404 49.0353 33.7271C49.2248 33.3138 49.5087 32.9486 49.8653 32.66C50.2219 32.3713 50.6415 32.1668 51.0916 32.0623L62.5189 29.3873C63.1841 29.2227 63.8889 29.3236 64.4782 29.6678C65.0675 30.012 65.4929 30.5713 65.661 31.2227C65.8291 31.8741 65.7261 32.5642 65.3745 33.1412C65.023 33.7182 64.4518 34.1348 63.7865 34.2994L55.165 36.5494L59.5179 44.8927C60.066 45.9458 60.3908 47.0967 60.4729 48.276C60.555 49.4552 60.3925 50.6386 59.9954 51.7548Z" fill="white"/>
<path d="M46.0049 45.2788L37.6193 49.8032L38.285 50.9862L46.6706 46.4617L46.0049 45.2788Z" fill="white"/>
<path d="M66.2451 47.2604C65.2215 47.2604 64.2209 46.9632 63.3698 46.4063C62.5187 45.8495 61.8554 45.0581 61.4637 44.1321C61.0719 43.2061 60.9695 42.1872 61.1691 41.2042C61.3688 40.2212 61.8617 39.3182 62.5855 38.6095C63.3093 37.9008 64.2315 37.4182 65.2354 37.2226C66.2393 37.0271 67.2799 37.1274 68.2256 37.511C69.1713 37.8945 69.9796 38.5441 70.5483 39.3774C71.1169 40.2108 71.4205 41.1905 71.4205 42.1928C71.419 43.5364 70.8733 44.8245 69.903 45.7745C68.9328 46.7246 67.6172 47.2589 66.2451 47.2604ZM66.2451 38.4766C65.4945 38.4766 64.7607 38.6945 64.1365 39.1029C63.5124 39.5112 63.026 40.0916 62.7387 40.7707C62.4514 41.4497 62.3763 42.1969 62.5227 42.9178C62.6692 43.6387 63.0306 44.3008 63.5614 44.8206C64.0922 45.3403 64.7685 45.6942 65.5047 45.8376C66.2409 45.981 67.004 45.9074 67.6975 45.6261C68.391 45.3449 68.9837 44.8686 69.4007 44.2574C69.8178 43.6463 70.0404 42.9278 70.0404 42.1928C70.0391 41.2076 69.6388 40.2631 68.9273 39.5664C68.2159 38.8698 67.2513 38.4778 66.2451 38.4766Z" fill="white"/>
</svg>
